<?xml version="1.0" encoding="UTF-8" standalone="no"?>
<svg
   width="24"
   height="24"
   viewBox="0 0 48 48"
   fill="none"
   version="1.1"
   id="svg2"
   sodipodi:docname="pokeball2.svg"
   inkscape:version="1.3.2 (091e20ef0f, 2023-11-25, custom)"
   xmlns:inkscape="http://www.inkscape.org/namespaces/inkscape"
   xmlns:sodipodi="http://sodipodi.sourceforge.net/DTD/sodipodi-0.dtd"
   xmlns="http://www.w3.org/2000/svg"
   xmlns:svg="http://www.w3.org/2000/svg">
  <defs
     id="defs2" />
  <sodipodi:namedview
     id="namedview2"
     pagecolor="#505050"
     bordercolor="#ffffff"
     borderopacity="1"
     inkscape:showpageshadow="0"
     inkscape:pageopacity="0"
     inkscape:pagecheckerboard="1"
     inkscape:deskcolor="#505050"
     inkscape:zoom="33.416667"
     inkscape:cx="12"
     inkscape:cy="12"
     inkscape:window-width="1920"
     inkscape:window-height="1006"
     inkscape:window-x="0"
     inkscape:window-y="0"
     inkscape:window-maximized="1"
     inkscape:current-layer="svg2" />
  <path
     d="M29.7144 24C29.7144 27.1559 27.156 29.7143 24.0001 29.7143C20.8442 29.7143 18.2858 27.1559 18.2858 24C18.2858 20.8441 20.8442 18.2857 24.0001 18.2857C27.156 18.2857 29.7144 20.8441 29.7144 24Z"
     fill="#ffffff"
     id="path1" />
  <path
     fill-rule="evenodd"
     clip-rule="evenodd"
     d="M24.0001 48C36.0909 48 46.0934 39.0593 47.7571 27.4286H33.7006C32.2885 31.4235 28.4786 34.2857 24.0001 34.2857C19.5217 34.2857 15.7117 31.4235 14.2997 27.4286H0.243164C1.90681 39.0593 11.9094 48 24.0001 48ZM14.2997 20.5714H0.243164C1.90681 8.94071 11.9094 0 24.0001 0C36.0909 0 46.0934 8.94071 47.7571 20.5714H33.7006C32.2885 16.5765 28.4786 13.7143 24.0001 13.7143C19.5217 13.7143 15.7117 16.5765 14.2997 20.5714ZM29.7144 24C29.7144 27.1559 27.156 29.7143 24.0001 29.7143C20.8442 29.7143 18.2858 27.1559 18.2858 24C18.2858 20.8441 20.8442 18.2857 24.0001 18.2857C27.156 18.2857 29.7144 20.8441 29.7144 24Z"
     fill="#ffffff"
     id="path2"
     style="stroke:none;stroke-opacity:1;fill:#000000;fill-opacity:1" />
</svg>
